<svg xmlns="http://www.w3.org/2000/svg" viewBox="-2 65 184 70"><g transform="translate(0, 25)" xmlns="http://www.w3.org/2000/svg">
    <rect x="0" y="78" width="180" height="10" fill="#1a1a1a"/>
    <rect x="0" y="76" width="180" height="3" fill="#3a3a3a"/>
    <rect x="0" y="78" width="14" height="10" fill="#c8252a" stroke="#5a0f12" stroke-width="0.5"/>
    <rect x="166" y="78" width="14" height="10" fill="#c8252a" stroke="#5a0f12" stroke-width="0.5"/>
    <rect x="14" y="62" width="34" height="16" fill="#c8252a" stroke="#5a0f12" stroke-width="0.8"/>
    <rect x="14" y="60" width="34" height="3" fill="#d83a3a"/>
    <rect x="16" y="64" width="12" height="5" fill="#1a1a1a"/>
    <text x="22" y="68" text-anchor="middle" style="font-family:sans-serif; font-size:4px; fill:#fac775; font-weight:bold;">7003</text>
    <circle cx="16" cy="73" r="2" fill="#fac775" stroke="#854f0b" stroke-width="0.4"/>
    <rect x="48" y="44" width="32" height="34" fill="#1a1a1a" stroke="#000" stroke-width="0.8"/>
    <rect x="48" y="42" width="32" height="3" fill="#2a2a2a"/>
    <rect x="51" y="48" width="12" height="10" fill="#cfe8ff" stroke="#000" stroke-width="0.4"/>
    <line x1="57" y1="48" x2="57" y2="58" stroke="#000" stroke-width="0.3"/>
    <rect x="66" y="48" width="12" height="8" fill="#cfe8ff" stroke="#000" stroke-width="0.4"/>
    <rect x="66" y="58" width="12" height="20" fill="#1a1a1a" stroke="#3a3a3a" stroke-width="0.3"/>
    <text x="72" y="71" text-anchor="middle" style="font-family:sans-serif; font-size:4px; fill:#fff; font-weight:bold;">7003</text>
    <rect x="80" y="50" width="86" height="28" fill="#1a1a1a" stroke="#000" stroke-width="0.8"/>
    <rect x="80" y="48" width="86" height="3" fill="#2a2a2a"/>
    <rect x="14" y="78" width="152" height="3" fill="#c8252a"/>
    <rect x="14" y="81" width="152" height="1.5" fill="#fac775"/>
    <g fill="#0a0a0a" stroke="#2a2a2a" stroke-width="0.3">
      <rect x="84" y="53" width="4" height="20"/>
      <rect x="90" y="53" width="4" height="20"/>
      <rect x="96" y="53" width="4" height="20"/>
      <rect x="146" y="53" width="4" height="20"/>
      <rect x="152" y="53" width="4" height="20"/>
      <rect x="158" y="53" width="4" height="20"/>
    </g>
    <g transform="translate(112, 58)">
      <path d="M 0 4 Q 0 0 5 0 L 12 0 L 12 4 L 7 4 Q 5 4 5 6 L 5 10 Q 5 12 7 12 L 12 12 L 12 16 L 5 16 Q 0 16 0 12 Z" fill="#fff"/>
      <path d="M 16 0 L 21 0 L 21 9 L 28 0 L 33 0 L 33 16 L 28 16 L 28 7 L 21 16 L 16 16 Z" fill="#fff"/>
    </g>
    <rect x="118" y="42" width="18" height="6" fill="#1a1a1a" stroke="#000" stroke-width="0.3"/>
    <circle cx="148" cy="48" r="4" fill="#0a0a0a" stroke="#2a2a2a" stroke-width="0.4"/>
    <g stroke="#2a2a2a" stroke-width="0.3" fill="none"><line x1="144" y1="48" x2="152" y2="48"/><line x1="148" y1="44" x2="148" y2="52"/><line x1="145" y1="45" x2="151" y2="51"/><line x1="151" y1="45" x2="145" y2="51"/></g>
    <circle cx="164" cy="60" r="2" fill="#fac775" stroke="#854f0b" stroke-width="0.4"/>
    <rect x="16" y="88" width="42" height="8" fill="#1a1a1a" stroke="#0a0a0a"/>
    <rect x="120" y="88" width="46" height="8" fill="#1a1a1a" stroke="#0a0a0a"/>
    <rect x="16" y="96" width="42" height="1.5" fill="#fac775"/>
    <rect x="120" y="96" width="46" height="1.5" fill="#fac775"/>
    <circle cx="24" cy="100" r="8" fill="#2c2c2a" stroke="#5f5e5a" stroke-width="1.5"/>
    <circle cx="50" cy="100" r="8" fill="#2c2c2a" stroke="#5f5e5a" stroke-width="1.5"/>
    <circle cx="128" cy="100" r="8" fill="#2c2c2a" stroke="#5f5e5a" stroke-width="1.5"/>
    <circle cx="158" cy="100" r="8" fill="#2c2c2a" stroke="#5f5e5a" stroke-width="1.5"/>
    <g stroke="#fac775" stroke-width="0.5" fill="none">
      <line x1="2" y1="80" x2="2" y2="88"/>
      <line x1="178" y1="80" x2="178" y2="88"/>
    </g>
  </g></svg>